<?xml version="1.0" standalone="no"?><!DOCTYPE svg PUBLIC "-//W3C//DTD SVG 1.1//EN" "http://www.w3.org/Graphics/SVG/1.1/DTD/svg11.dtd"><svg class="icon" width="48px" height="48.00px" viewBox="0 0 1024 1024" version="1.1" xmlns="http://www.w3.org/2000/svg"><path fill="#13227a" d="M577.643046 141.480268l0 155.22941c-341.371878 0-624.190175 113.01803-476.844316 612.963483-23.134907-312.505433 128.986723-410.610822 476.844316-410.610822l0 152.328337c0 10.986215 6.073322 20.881586 16.240893 25.112957 3.344165 1.331321 6.894014 2.047636 10.443863 2.047636 7.027044 0 13.990642-2.729158 19.176758-7.984858l325.267085-254.322289c10.611685-10.576893 10.611685-27.881001 0-38.423101L623.50456 122.268718c-7.78122-7.711636-19.518542-10.097986-29.620621-5.870708C583.715345 120.598682 577.643046 130.494053 577.643046 141.480268z" /></svg>